<svg width="20" height="20" viewBox="0 0 20 20" fill="none" xmlns="http://www.w3.org/2000/svg">
    <path opacity="0.3" fill-rule="evenodd" clip-rule="evenodd"
        d="M16.9056 6.15622C16.9668 6.28682 17 6.4312 17 6.58033V13.4197C17 13.7785 16.8077 14.1099 16.4961 14.2879L10.4961 17.7165C10.3707 17.7882 10.2336 17.8306 10.0944 17.8438C10.0332 17.7132 10 17.5688 10 17.4197V10.5803C10 10.2215 10.1923 9.89013 10.5039 9.71209L16.5039 6.28352C16.6293 6.21184 16.7664 6.16941 16.9056 6.15622Z"
        fill="#A2ADBD" />
    <path
        d="M9.50386 2.28351C9.81129 2.10783 10.1887 2.10783 10.4961 2.28351L16.4961 5.71208C16.8077 5.89012 17 6.22147 17 6.58032V13.4197C17 13.7785 16.8077 14.1099 16.4961 14.2879L10.4961 17.7165C10.1887 17.8922 9.81129 17.8922 9.50386 17.7165L3.50386 14.2879C3.19229 14.1099 3 13.7785 3 13.4197V6.58032C3 6.22147 3.19229 5.89012 3.50386 5.71208L9.50386 2.28351Z"
        stroke="#A2ADBD" stroke-width="1.3" />
    <path d="M17 6.60001L10.4961 10.3165C10.1887 10.4922 9.81129 10.4922 9.50386 10.3165L3 6.60001"
        stroke="#A2ADBD" stroke-width="1.3" />
    <path d="M10 11V17.5" stroke="#A2ADBD" stroke-width="1.3" />
</svg>