<svg width="18" height="18" viewBox="0 0 18 18" fill="none" xmlns="http://www.w3.org/2000/svg">
<circle cx="9.00049" cy="9.00049" r="8.25" stroke="#3E4C61" stroke-width="1.5"/>
<mask id="path-2-inside-1_14521_11431" fill="white">
<path d="M9 0.000488281C4.02955 0.000620222 0 4.03001 0 9.00049C0 13.971 4.02955 18.0004 9 18.0005C9.06128 18.0005 9.1226 17.9968 9.18359 17.9956C11.4552 15.6768 12.8574 12.503 12.8574 9.00049C12.8574 5.49798 11.4561 2.32322 9.18457 0.00439453C9.12326 0.00316259 9.0616 0.000488281 9 0.000488281Z"/>
</mask>
<path d="M9 0.000488281L8.99996 -1.49951H9V0.000488281ZM9 18.0005V19.5005H8.99996L9 18.0005ZM9.18359 17.9956L10.2551 19.0453L9.82626 19.4831L9.21357 19.4953L9.18359 17.9956ZM12.8574 9.00049H14.3574V9.0005L12.8574 9.00049ZM9.18457 0.00439453L9.21471 -1.4953L9.82731 -1.48299L10.2561 -1.04529L9.18457 0.00439453ZM9 0.000488281L9.00004 1.50049C4.85795 1.5006 1.5 4.85847 1.5 9.00049H0H-1.5C-1.5 3.20154 3.20115 -1.49936 8.99996 -1.49951L9 0.000488281ZM0 9.00049H1.5C1.5 13.1425 4.85795 16.5004 9.00004 16.5005L9 18.0005L8.99996 19.5005C3.20115 19.5003 -1.5 14.7994 -1.5 9.00049H0ZM9 18.0005V16.5005C9.06349 16.5005 8.99089 16.4992 9.15361 16.4959L9.18359 17.9956L9.21357 19.4953C9.19777 19.4956 9.1851 19.4962 9.14422 19.4976C9.11082 19.4988 9.0583 19.5005 9 19.5005V18.0005ZM9.18359 17.9956L8.11208 16.9459C10.1207 14.8956 11.3574 12.0942 11.3574 9.00048L12.8574 9.00049L14.3574 9.0005C14.3574 12.9118 12.7897 16.458 10.2551 19.0453L9.18359 17.9956ZM12.8574 9.00049H11.3574C11.3574 5.90639 10.1213 3.10413 8.11305 1.05408L9.18457 0.00439453L10.2561 -1.04529C12.791 1.5423 14.3574 5.08957 14.3574 9.00049H12.8574ZM9.18457 0.00439453L9.15443 1.50409C9.04217 1.50184 9.04588 1.50049 9 1.50049V0.000488281V-1.49951C9.07732 -1.49951 9.20436 -1.49551 9.21471 -1.4953L9.18457 0.00439453Z" fill="#3E4C61" mask="url(#path-2-inside-1_14521_11431)"/>
<mask id="path-4-inside-2_14521_11431" fill="white">
<path d="M9.00049 0.000488281C13.9709 0.000620222 18.0005 4.03001 18.0005 9.00049C18.0005 13.971 13.9709 18.0004 9.00049 18.0005C8.93921 18.0005 8.87788 17.9968 8.81689 17.9956C6.5453 15.6768 5.14309 12.503 5.14307 9.00049C5.14307 5.49798 6.54435 2.32322 8.81592 0.00439453C8.87723 0.00316259 8.93889 0.000488281 9.00049 0.000488281Z"/>
</mask>
<path d="M9.00049 0.000488281L9.00053 -1.49951H9.00049V0.000488281ZM9.00049 18.0005V19.5005H9.00053L9.00049 18.0005ZM8.81689 17.9956L7.74538 19.0453L8.17423 19.4831L8.78692 19.4953L8.81689 17.9956ZM5.14307 9.00049H3.64307V9.0005L5.14307 9.00049ZM8.81592 0.00439453L8.78578 -1.4953L8.17318 -1.48299L7.7444 -1.04529L8.81592 0.00439453ZM9.00049 0.000488281L9.00045 1.50049C13.1425 1.5006 16.5005 4.85847 16.5005 9.00049H18.0005H19.5005C19.5005 3.20154 14.7993 -1.49936 9.00053 -1.49951L9.00049 0.000488281ZM18.0005 9.00049H16.5005C16.5005 13.1425 13.1425 16.5004 9.00045 16.5005L9.00049 18.0005L9.00053 19.5005C14.7993 19.5003 19.5005 14.7994 19.5005 9.00049H18.0005ZM9.00049 18.0005V16.5005C8.937 16.5005 9.0096 16.4992 8.84687 16.4959L8.81689 17.9956L8.78692 19.4953C8.80271 19.4956 8.81538 19.4962 8.85627 19.4976C8.88967 19.4988 8.94218 19.5005 9.00049 19.5005V18.0005ZM8.81689 17.9956L9.88841 16.9459C7.87983 14.8956 6.64309 12.0942 6.64307 9.00048L5.14307 9.00049L3.64307 9.0005C3.64309 12.9118 5.21077 16.458 7.74538 19.0453L8.81689 17.9956ZM5.14307 9.00049H6.64307C6.64307 5.90639 7.87916 3.10413 9.88744 1.05408L8.81592 0.00439453L7.7444 -1.04529C5.20953 1.5423 3.64307 5.08957 3.64307 9.00049H5.14307ZM8.81592 0.00439453L8.84605 1.50409C8.95832 1.50184 8.95461 1.50049 9.00049 1.50049V0.000488281V-1.49951C8.92317 -1.49951 8.79613 -1.49551 8.78578 -1.4953L8.81592 0.00439453Z" fill="#3E4C61" mask="url(#path-4-inside-2_14521_11431)"/>
<mask id="path-6-inside-3_14521_11431" fill="white">
<path d="M17.0806 5.03516C15.6145 2.05306 12.5469 -5.40633e-08 8.99951 -9.63656e-08C5.45214 0.000122408 2.38638 2.05398 0.92041 5.03613C3.2108 6.63316 5.99559 7.57027 8.99951 7.57031C12.0042 7.57031 14.7898 6.63286 17.0806 5.03516Z"/>
</mask>
<path d="M17.0806 5.03516L18.4267 4.37337L18.9948 5.52888L17.9387 6.26547L17.0806 5.03516ZM8.99951 -9.63656e-08L8.99946 -1.5L8.99951 -1.5L8.99951 -9.63656e-08ZM0.92041 5.03613L0.0624695 6.26655L-0.993822 5.53003L-0.425734 4.37439L0.92041 5.03613ZM8.99951 7.57031L8.99951 9.07031L8.99949 9.07031L8.99951 7.57031ZM17.0806 5.03516L15.7344 5.69694C14.5108 3.20798 11.9532 1.5 8.99951 1.5L8.99951 -9.63656e-08L8.99951 -1.5C13.1407 -1.5 16.7182 0.898132 18.4267 4.37337L17.0806 5.03516ZM8.99951 -9.63656e-08L8.99956 1.5C6.04647 1.5001 3.49035 3.20837 2.26655 5.69787L0.92041 5.03613L-0.425734 4.37439C1.28241 0.899592 4.85781 -1.49986 8.99946 -1.5L8.99951 -9.63656e-08ZM0.92041 5.03613L1.77835 3.80571C3.82542 5.23307 6.31245 6.07028 8.99953 6.07031L8.99951 7.57031L8.99949 9.07031C5.67873 9.07027 2.59618 8.03324 0.0624695 6.26655L0.92041 5.03613ZM8.99951 7.57031L8.99951 6.07031C11.6873 6.07031 14.1751 5.23278 16.2225 3.80485L17.0806 5.03516L17.9387 6.26547C15.4045 8.03294 12.321 9.07031 8.99951 9.07031L8.99951 7.57031Z" fill="#3E4C61" mask="url(#path-6-inside-3_14521_11431)"/>
<mask id="path-8-inside-4_14521_11431" fill="white">
<path d="M17.0659 12.9946C15.5942 15.9608 12.5353 18.0005 8.99951 18.0005C5.46411 18.0003 2.40683 15.9605 0.935059 12.9946C3.2227 11.4037 6.00191 10.4703 8.99951 10.4702C11.9976 10.4702 14.778 11.4033 17.0659 12.9946Z"/>
</mask>
<path d="M17.0659 12.9946L18.4096 13.6613L18.9848 12.5021L17.9224 11.7632L17.0659 12.9946ZM8.99951 18.0005L8.99945 19.5005L8.99951 19.5005L8.99951 18.0005ZM0.935059 12.9946L0.0786438 11.7631L-0.983904 12.5021L-0.408596 13.6614L0.935059 12.9946ZM8.99951 10.4702L8.99951 8.97021L8.99949 8.97021L8.99951 10.4702ZM17.0659 12.9946L15.7222 12.3279C14.4938 14.8037 11.9434 16.5005 8.99951 16.5005L8.99951 18.0005L8.99951 19.5005C13.1271 19.5005 16.6946 17.1179 18.4096 13.6613L17.0659 12.9946ZM8.99951 18.0005L8.99957 16.5005C6.05634 16.5004 3.50733 14.8037 2.27871 12.3279L0.935059 12.9946L-0.408596 13.6614C1.30633 17.1172 4.87188 19.5003 8.99945 19.5005L8.99951 18.0005ZM0.935059 12.9946L1.79147 14.2261C3.83617 12.8042 6.31821 11.9703 8.99954 11.9702L8.99951 10.4702L8.99949 8.97021C5.68561 8.97027 2.60924 10.0033 0.0786438 11.7631L0.935059 12.9946ZM8.99951 10.4702L8.99951 11.9702C11.6816 11.9702 14.1647 12.8039 16.2094 14.226L17.0659 12.9946L17.9224 11.7632C15.3913 10.0027 12.3137 8.97021 8.99951 8.97021L8.99951 10.4702Z" fill="#3E4C61" mask="url(#path-8-inside-4_14521_11431)"/>
</svg>
